<svg width="16" height="16" viewBox="0 0 16 16" fill="none" xmlns="http://www.w3.org/2000/svg">
<path d="M6.96215 3.93523C5.77532 2.90859 3.86345 2.99063 2.80751 4.35161L2.60128 4.61743C1.50445 6.03111 1.66282 8.04711 2.96693 9.27219L7.60201 13.6263C7.76167 13.7763 7.8415 13.8513 7.93563 13.8698C7.97802 13.8781 8.02162 13.8781 8.06401 13.8698C8.15813 13.8513 8.23796 13.7763 8.39763 13.6263L13.0327 9.27219C14.3368 8.04711 14.4952 6.03111 13.3984 4.61742L13.1921 4.35161C12.1653 3.02819 10.3292 2.91409 9.13738 3.85276" stroke="white" stroke-linecap="round"/>
<path d="M6.96199 3.93506L6.58518 4.41267C6.07789 5.05568 5.82424 5.37718 5.822 5.72051C5.82119 5.84602 5.844 5.97057 5.88927 6.08764C6.01308 6.40787 6.36423 6.61856 7.06654 7.03995V7.03995C7.71992 7.43197 8.0466 7.62799 8.17358 7.92826C8.22015 8.03839 8.2466 8.15598 8.25165 8.27545C8.26544 8.60118 8.05411 8.91817 7.63146 9.55216L7.33301 9.99983" stroke="white" stroke-linecap="round"/>
</svg>
