<svg width="29" height="28" viewBox="0 0 29 28" fill="none" xmlns="http://www.w3.org/2000/svg">
<path d="M23.8337 14V20.5C23.8337 22.3856 23.8337 23.3284 23.2479 23.9142C22.6621 24.5 21.7193 24.5 19.8337 24.5H8.08366C6.47283 24.5 5.16699 23.1942 5.16699 21.5833V21.5833C5.16699 19.9725 6.47283 18.6667 8.08366 18.6667H19.8337C21.7193 18.6667 22.6621 18.6667 23.2479 18.0809C23.8337 17.4951 23.8337 16.5523 23.8337 14.6667V7.5C23.8337 5.61438 23.8337 4.67157 23.2479 4.08579C22.6621 3.5 21.7193 3.5 19.8337 3.5H9.16699C7.28137 3.5 6.33857 3.5 5.75278 4.08579C5.16699 4.67157 5.16699 5.61438 5.16699 7.5V21.5833" stroke="#9C9EA2" stroke-width="1.5"/>
<path d="M11 9.33325L18 9.33325" stroke="#9C9EA2" stroke-width="1.5" stroke-linecap="round"/>
</svg>
