<svg width="24" height="24" viewBox="0 0 24 24" fill="none" xmlns="http://www.w3.org/2000/svg">
<path d="M12 4L10.8522 5.91303C9.94978 7.41704 9.49857 8.16905 9.49857 9C9.49857 9.83095 9.94978 10.583 10.8522 12.087L11.5713 13.2854C11.7627 13.6045 11.8585 13.7641 12 13.7641C12.1415 13.7641 12.2373 13.6045 12.4287 13.2854L13.1478 12.087C14.0502 10.583 14.5014 9.83095 14.5014 9C14.5014 8.16905 14.0502 7.41704 13.1478 5.91303L12 4ZM12 4V2" stroke="#FF7D7D" stroke-width="2"/>
<path d="M20.1605 12.5981L17.9299 12.5606C16.1762 12.5311 15.2993 12.5163 14.5797 12.9318C13.8601 13.3473 13.4344 14.114 12.5831 15.6475L11.9047 16.8695C11.7241 17.1949 11.6338 17.3575 11.7046 17.4801C11.7754 17.6027 11.9614 17.6058 12.3335 17.6121L13.7309 17.6356C15.4846 17.6651 16.3615 17.6799 17.0811 17.2644C17.8007 16.8489 18.2264 16.0821 19.0777 14.5486L20.1605 12.5981ZM20.1605 12.5981L21.8926 11.5981" stroke="#FF7D7D" stroke-width="2"/>
<path d="M3.83947 12.5981L6.07011 12.5606C7.82383 12.5311 8.70069 12.5163 9.42031 12.9318C10.1399 13.3473 10.5656 14.114 11.4169 15.6475L12.0953 16.8695C12.2759 17.1949 12.3662 17.3575 12.2954 17.4801C12.2246 17.6027 12.0386 17.6058 11.6665 17.6121L10.2691 17.6356C8.51537 17.6651 7.63851 17.6799 6.91889 17.2644C6.19926 16.8489 5.7736 16.0821 4.92229 14.5486L3.83947 12.5981ZM3.83947 12.5981L2.10742 11.5981" stroke="#FF7D7D" stroke-width="2"/>
<path d="M12 15V22.5" stroke="#FF7D7D" stroke-width="2"/>
</svg>
