<svg width="29" height="28" viewBox="0 0 29 28" fill="none" xmlns="http://www.w3.org/2000/svg">
<path d="M23.8337 12.6667C23.8337 8.89551 23.8337 7.00989 22.6621 5.83832C21.4905 4.66675 19.6049 4.66675 15.8337 4.66675H13.167C9.39576 4.66675 7.51014 4.66675 6.33857 5.83832C5.16699 7.00989 5.16699 8.89551 5.16699 12.6667V21.3334C5.16699 22.2762 5.16699 22.7476 5.45989 23.0405C5.75278 23.3334 6.22418 23.3334 7.16699 23.3334H15.8337C19.6049 23.3334 21.4905 23.3334 22.6621 22.1618C23.8337 20.9903 23.8337 19.1047 23.8337 15.3334V12.6667Z" stroke="#9C9EA2" stroke-width="1.5"/>
<path d="M11 11.6667L18 11.6667" stroke="#9C9EA2" stroke-width="1.5" stroke-linecap="round" stroke-linejoin="round"/>
<path d="M11 16.3333H14.5" stroke="#9C9EA2" stroke-width="1.5" stroke-linecap="round" stroke-linejoin="round"/>
</svg>
