<svg width="20" height="20" viewBox="0 0 20 20" fill="none" xmlns="http://www.w3.org/2000/svg">
<path fill-rule="evenodd" clip-rule="evenodd" d="M2.50033 3.2415C1.66699 4.43621 1.66699 6.3001 1.66699 9.66651V10.3332C1.66699 14.1044 1.66699 15.99 2.83857 17.1616C4.01014 18.3332 5.89576 18.3332 9.667 18.3332H10.3337C14.1049 18.3332 15.9905 18.3332 17.1621 17.1616C18.3337 15.99 18.3337 14.1044 18.3337 10.3332V9.6665C18.3337 6.30009 18.3337 4.4362 17.5003 3.2415V14.1665C16.7 14.1665 15.9324 13.8486 15.3664 13.2826L14.7401 12.6562L14.74 12.6562C14.36 12.2762 14.17 12.0861 13.9766 11.9653C13.3282 11.5604 12.5058 11.5604 11.8574 11.9653C11.664 12.0861 11.474 12.2762 11.0939 12.6562L11.0939 12.6562L10.9996 12.7505L10.9996 12.7505C10.6693 13.0809 10.5041 13.2461 10.3454 13.3205C9.95294 13.5044 9.4867 13.4146 9.19065 13.0981C9.07089 12.97 8.97887 12.7553 8.79483 12.3259L8.75033 12.2221C8.30257 11.1773 8.07869 10.6549 7.76376 10.3649C7.20611 9.85146 6.40609 9.69739 5.69763 9.96703C5.29753 10.1193 4.89565 10.5212 4.0919 11.3249L2.50033 12.9165V3.2415ZM9.47798 1.66651H10.5227C10.4602 1.6665 10.3972 1.6665 10.3337 1.6665H9.66699C9.60345 1.6665 9.54045 1.6665 9.47798 1.66651Z" fill="#9DA6B1"/>
<path d="M2.16699 9.66651C2.16699 7.76675 2.16805 6.39224 2.30898 5.34404C2.44797 4.31023 2.71472 3.66903 3.19212 3.19163C3.66952 2.71423 4.31072 2.44748 5.34453 2.30849C6.39272 2.16757 7.76724 2.1665 9.66699 2.1665H10.3337C12.2334 2.1665 13.6079 2.16757 14.6561 2.30849C15.6899 2.44748 16.3311 2.71423 16.8085 3.19163L17.1621 2.83808L16.8085 3.19163C17.2859 3.66903 17.5527 4.31023 17.6917 5.34404C17.8326 6.39224 17.8337 7.76675 17.8337 9.6665V10.3332C17.8337 12.2329 17.8326 13.6074 17.6917 14.6556C17.5527 15.6894 17.2859 16.3306 16.8085 16.808C16.3311 17.2854 15.6899 17.5522 14.6561 17.6912C13.6079 17.8321 12.2334 17.8332 10.3337 17.8332H9.667C7.76724 17.8332 6.39272 17.8321 5.34453 17.6912C4.31072 17.5522 3.66952 17.2854 3.19212 16.808L2.83857 17.1616L3.19212 16.808C2.71472 16.3306 2.44797 15.6894 2.30898 14.6556C2.16805 13.6074 2.16699 12.2329 2.16699 10.3332V9.66651Z" stroke="#9DA6B1"/>
<path d="M13.6663 7.50016C13.6663 8.1445 13.144 8.66683 12.4997 8.66683C11.8553 8.66683 11.333 8.1445 11.333 7.50016C11.333 6.85583 11.8553 6.3335 12.4997 6.3335C13.144 6.3335 13.6663 6.85583 13.6663 7.50016Z" stroke="#9DA6B1" stroke-linecap="round"/>
</svg>
