<svg width="29" height="28" viewBox="0 0 29 28" fill="none" xmlns="http://www.w3.org/2000/svg">
<path d="M6.33301 14.8861C6.33301 13.3021 6.33301 12.5101 6.65321 11.8139C6.97342 11.1177 7.57477 10.6022 8.77747 9.57134L9.94413 8.57134C12.118 6.70803 13.2049 5.77637 14.4997 5.77637C15.7944 5.77637 16.8813 6.70803 19.0552 8.57134L20.2219 9.57134C21.4246 10.6022 22.0259 11.1177 22.3461 11.8139C22.6663 12.5101 22.6663 13.3021 22.6663 14.8861V19.8333C22.6663 22.0331 22.6663 23.1331 21.9829 23.8165C21.2995 24.4999 20.1996 24.4999 17.9997 24.4999H10.9997C8.79979 24.4999 7.69984 24.4999 7.01643 23.8165C6.33301 23.1331 6.33301 22.0331 6.33301 19.8333V14.8861Z" stroke="#FF7D7D" stroke-width="1.5"/>
<path d="M17.4163 24.5V18.5C17.4163 17.9477 16.9686 17.5 16.4163 17.5H12.583C12.0307 17.5 11.583 17.9477 11.583 18.5V24.5" stroke="#FF7D7D" stroke-width="1.5" stroke-linecap="round" stroke-linejoin="round"/>
</svg>
