<svg width="118" height="152" viewBox="0 0 118 152" fill="none" xmlns="http://www.w3.org/2000/svg">
<path fill-rule="evenodd" clip-rule="evenodd" d="M79.6417 75.866C100.592 75.866 117.575 58.8828 117.575 37.933C117.575 16.9832 100.592 0 79.6417 0C78.1077 0 76.5949 0.0910628 75.1085 0.268078H0.424805V152H12.6573L16.4654 71.5282L11.9521 60.7986L13.6446 58.2574V55.8574L20.4146 51.7632L19.8504 49.3632L31.9799 36.6571L33.8135 31.1512L40.1603 28.7511L44.8147 20.9863L54.5465 13.2215L63.291 11.5273L72.7407 15.6215L81.2032 29.457L76.4078 41.4572L73.728 43.2925V49.6455L71.7535 50.9162L68.3685 49.6455L67.8043 51.3397L66.9581 51.7632H66.5349L65.4066 52.3279V53.175L64.5604 53.7397L62.5858 54.0221L61.0344 56.9868L58.4956 57.4104L53.5592 52.8927H51.1615L48.1996 56.9868L64.5604 73.3635L68.3685 79.8577V85.0814L66.9581 88.4696L79.0876 103.858L84.024 116.282H85.2934L86.2807 117.552L85.7165 118.682V123.482L86.8448 124.329L87.55 125.882L87.2679 127.153L86.5627 128L86.8448 129.411L86.5627 130.682L85.4344 131.529L84.5882 131.67L84.4471 133.647L83.3188 135.2L81.7673 135.341L81.9084 136.612L80.498 138.023H78.6645L74.7153 144.659V152L79.5077 152L79.6417 152C100.592 152 117.575 135.017 117.575 114.067C117.575 93.1172 100.592 76.134 79.6417 76.134L79.5077 76.1343V75.8657L79.6417 75.866Z" fill="#FF7D7D"/>
</svg>
