<svg width="28" height="28" viewBox="0 0 28 28" fill="none" xmlns="http://www.w3.org/2000/svg">
<path d="M2.33301 10.4999V7.58325C2.33301 4.67825 4.67801 2.33325 7.58301 2.33325H10.4997M17.4997 2.33325H20.4163C23.3213 2.33325 25.6663 4.67825 25.6663 7.58325V10.4999M25.6663 18.6666V20.4166C25.6663 23.3216 23.3213 25.6666 20.4163 25.6666H18.6663M10.4997 25.6666H7.58301C4.67801 25.6666 2.33301 23.3216 2.33301 20.4166V17.4999M22.1663 13.9999H5.83301M19.833 11.0833V16.9166C19.833 19.2499 18.6663 20.4166 16.333 20.4166H11.6663C9.33301 20.4166 8.16634 19.2499 8.16634 16.9166V11.0833C8.16634 8.74992 9.33301 7.58325 11.6663 7.58325H16.333C18.6663 7.58325 19.833 8.74992 19.833 11.0833Z" stroke="#9C9EA2" stroke-width="1.5" stroke-linecap="round" stroke-linejoin="round"/>
</svg>
