<svg width="20" height="20" viewBox="0 0 20 20" fill="none" xmlns="http://www.w3.org/2000/svg">
<path d="M13.333 17.5V16.25C13.333 14.6063 13.333 13.7844 12.879 13.2312C12.7959 13.1299 12.7031 13.0371 12.6018 12.954C12.0486 12.5 11.2267 12.5 9.58301 12.5V12.5C7.93927 12.5 7.1174 12.5 6.56422 12.954C6.46295 13.0371 6.3701 13.1299 6.28699 13.2312C5.83301 13.7844 5.83301 14.6063 5.83301 16.25V17.5" stroke="white" stroke-width="2"/>
<path d="M5.83301 6.6665H9.99967" stroke="white" stroke-width="2" stroke-linecap="round"/>
<path d="M2.5 8.5C2.5 5.67157 2.5 4.25736 3.37868 3.37868C4.25736 2.5 5.67157 2.5 8.5 2.5H13.3382C13.747 2.5 13.9514 2.5 14.1351 2.57612C14.3189 2.65224 14.4634 2.79676 14.7525 3.08579L16.9142 5.24755C17.2032 5.53658 17.3478 5.68109 17.4239 5.86486C17.5 6.04863 17.5 6.25301 17.5 6.66176V11.5C17.5 14.3284 17.5 15.7426 16.6213 16.6213C15.7426 17.5 14.3284 17.5 11.5 17.5H8.5C5.67157 17.5 4.25736 17.5 3.37868 16.6213C2.5 15.7426 2.5 14.3284 2.5 11.5V8.5Z" stroke="white" stroke-width="2"/>
</svg>
