<svg width="30" height="31" viewBox="0 0 30 31" fill="none" xmlns="http://www.w3.org/2000/svg">
<path fill-rule="evenodd" clip-rule="evenodd" d="M4.375 19.8751L7.07232 17.1778C8.96513 15.285 9.91154 14.3386 10.9536 14.5393C11.9956 14.74 12.5229 15.9702 13.5773 18.4306L13.8363 19.0349C14.3636 20.2651 14.6272 20.8802 15.1482 20.9806C15.6692 21.0809 16.1424 20.6077 17.0888 19.6613L17.0888 19.6613L17.2654 19.4847C18.5077 18.2424 19.1289 17.6213 19.8958 17.5813C19.9652 17.5777 20.0348 17.5777 20.1042 17.5813C20.8711 17.6213 21.4923 18.2424 22.7346 19.4847L23.6742 20.4243C23.8258 20.5759 23.9016 20.6517 23.9784 20.721C24.6021 21.2833 25.3853 21.6337 26.216 21.7258C26.1394 23.6123 25.89 24.7666 25.0784 25.5782C23.9069 26.7498 22.0212 26.7498 18.25 26.7498H11.75C7.97876 26.7498 6.09315 26.7498 4.92157 25.5782C3.75 24.4066 3.75 22.521 3.75 18.7498V12.2498C3.75 9.19119 3.75 7.3729 4.375 6.16992V19.8751Z" fill="#141414"/>
<path d="M15 4.25H11.75C7.97876 4.25 6.09315 4.25 4.92157 5.42157C3.75 6.59315 3.75 8.47876 3.75 12.25V18.75C3.75 22.5212 3.75 24.4069 4.92157 25.5784C6.09315 26.75 7.97876 26.75 11.75 26.75H18.25C22.0212 26.75 23.9069 26.75 25.0784 25.5784C26.25 24.4069 26.25 22.5212 26.25 18.75V15.5" stroke="#141414" stroke-width="2"/>
<path d="M26.25 4.25V3.25H27.25V4.25H26.25ZM20.6247 10.0309C20.1934 10.3759 19.5641 10.306 19.2191 9.8747C18.8741 9.44343 18.944 8.81414 19.3753 8.46913L20.6247 10.0309ZM25.25 10.5V4.25H27.25V10.5H25.25ZM26.25 5.25H20V3.25H26.25V5.25ZM26.8747 5.03087L20.6247 10.0309L19.3753 8.46913L25.6253 3.46913L26.8747 5.03087Z" fill="#141414"/>
</svg>
